<?xml version="1.0" encoding="UTF-8" standalone="no"?>
<!DOCTYPE svg PUBLIC "-//W3C//DTD SVG 1.1//EN" "http://www.w3.org/Graphics/SVG/1.1/DTD/svg11.dtd">
<svg width="100%" height="100%" viewBox="0 0 448 448" version="1.1" xmlns="http://www.w3.org/2000/svg" xmlns:xlink="http://www.w3.org/1999/xlink" xml:space="preserve" xmlns:serif="http://www.serif.com/" style="fill-rule:evenodd;clip-rule:evenodd;stroke-linejoin:round;stroke-miterlimit:2;">
    <g>
        <path d="M224,0C347.629,0 448,100.371 448,224C448,347.629 347.629,448 224,448C100.371,448 0,347.629 0,224C0,100.371 100.371,0 224,0ZM114.447,70.494C95.149,70.494 79.48,86.162 79.48,105.461C79.48,124.76 95.149,140.428 114.447,140.428C133.746,140.428 149.414,124.76 149.414,105.461C149.414,86.162 133.746,70.494 114.447,70.494ZM144.275,166.31L84.422,166.31L84.422,358.972L144.275,358.972L144.275,166.31ZM241.575,358.972L241.575,262.483C241.575,262.483 240.809,238.812 250.786,225.316C259.565,213.441 277.117,214.162 277.117,214.162C277.117,214.162 293.801,212.974 301.885,226.313C309.329,238.594 308.607,262.641 308.607,262.641L308.619,358.874L368.431,358.874L368.431,251.713C368.431,251.713 371.408,203.76 349.085,179.944C330.192,159.788 299.298,161.523 299.298,161.523C299.298,161.523 281.42,159.974 264.361,169.119C246.005,178.959 239.963,192.584 239.963,192.584L239.182,192.584L239.182,166.31L181.735,166.31L181.735,358.972L241.575,358.972Z" style="fill:rgb(73,73,73);"/>
    </g>
</svg>
