<?xml version="1.0" encoding="UTF-8" standalone="no"?>
<!DOCTYPE svg PUBLIC "-//W3C//DTD SVG 1.1//EN" "http://www.w3.org/Graphics/SVG/1.1/DTD/svg11.dtd">
<svg width="100%" height="100%" viewBox="0 0 4267 4267" version="1.1" xmlns="http://www.w3.org/2000/svg" xmlns:xlink="http://www.w3.org/1999/xlink" xml:space="preserve" xmlns:serif="http://www.serif.com/" style="fill-rule:evenodd;clip-rule:evenodd;stroke-linejoin:round;stroke-miterlimit:2;">
    <g id="sw">
        <path d="M4266.67,416.667L4266.67,3850C4266.67,4079.96 4079.97,4266.66 3850,4266.66L416.664,4266.66C186.697,4266.66 -0.003,4079.96 -0.003,3850L-0.003,416.667C-0.003,186.7 186.697,0.001 416.664,0.001L3850,0.001C4079.97,0.001 4266.67,186.7 4266.67,416.667ZM2342.38,2566.85L1860.21,1731.72C1860.21,1731.72 1686.13,2033.26 1547.09,2274.09C1512.13,2334.58 1512.13,2409.16 1547.09,2469.65C1582,2530.18 1646.59,2566.85 1716.46,2566.85L2342.38,2566.85ZM3954.17,3788.79L3954.17,2708.85L1386.5,2708.85L2105.46,3954.17L3787.5,3954.17C3879.04,3954.17 3953.46,3880.19 3954.17,3788.8L3954.17,3788.79ZM312.5,3787.49C312.5,3879.48 387.166,3954.16 479.166,3954.16L1941.59,3954.16L1177.42,2630.54L2515.71,312.498L1896.63,312.498L312.496,3056.3L312.496,3787.49L312.5,3787.49ZM3787.5,312.502L2679.58,312.502L1942.12,1589.79L2506.33,2566.85L3954.17,2566.85L3954.17,477.873C3953.46,386.481 3879.04,312.502 3787.5,312.502Z" style="fill:rgb(73,73,73);"/>
    </g>
</svg>
