<?xml version="1.0" encoding="UTF-8" standalone="no"?>
<!DOCTYPE svg PUBLIC "-//W3C//DTD SVG 1.1//EN" "http://www.w3.org/Graphics/SVG/1.1/DTD/svg11.dtd">
<svg width="100%" height="100%" viewBox="0 0 24 24" version="1.1" xmlns="http://www.w3.org/2000/svg" xmlns:xlink="http://www.w3.org/1999/xlink" xml:space="preserve" xmlns:serif="http://www.serif.com/" style="fill-rule:evenodd;clip-rule:evenodd;stroke-linejoin:round;stroke-miterlimit:2;">
    <path d="M12.51,13.214C12.556,12.414 12.948,11.708 13.54,11.208C14.161,10.692 14.945,10.412 15.752,10.418C16.602,10.418 17.383,10.718 17.963,11.208C18.555,11.708 18.946,12.414 18.991,13.213C19.036,14.036 18.706,14.799 18.126,15.366C17.487,15.976 16.635,16.313 15.752,16.304C14.868,16.313 14.015,15.976 13.376,15.366C12.796,14.799 12.466,14.036 12.511,13.214M7.35,14.831C7.356,15.145 7.456,15.753 7.606,16.229C7.93,17.253 8.474,18.194 9.199,18.986C9.977,19.841 10.927,20.523 11.986,20.987C13.139,21.495 14.386,21.754 15.646,21.747C16.906,21.749 18.152,21.486 19.303,20.975C20.362,20.507 21.31,19.822 22.088,18.965C22.812,18.17 23.355,17.228 23.68,16.203C23.992,15.21 24.077,14.159 23.93,13.129C23.79,12.142 23.443,11.195 22.914,10.35C22.424,9.564 21.796,8.872 21.062,8.307L21.064,8.307L13.566,2.55L13.546,2.535C13.054,2.157 12.227,2.159 11.686,2.537C11.139,2.919 11.077,3.552 11.563,3.952L11.562,3.953L14.688,6.496L5.158,6.506L5.145,6.506C4.357,6.507 3.6,7.024 3.45,7.678C3.296,8.343 3.83,8.895 4.65,8.898L4.65,8.9L9.48,8.89L0.86,15.507L0.826,15.532C0.013,16.154 -0.249,17.19 0.263,17.845C0.783,18.512 1.888,18.513 2.71,17.849L7.414,14C7.414,14 7.345,14.52 7.351,14.831L7.35,14.831ZM19.44,16.572C18.47,17.56 17.114,18.12 15.645,18.122C14.175,18.126 12.818,17.57 11.848,16.584C11.39,16.124 11.037,15.571 10.812,14.962C10.396,13.804 10.499,12.52 11.094,11.443C11.387,10.916 11.778,10.451 12.247,10.072C13.189,9.304 14.388,8.889 15.643,8.887C16.899,8.885 18.098,9.297 19.041,10.062C19.521,10.453 19.911,10.916 20.193,11.429C20.485,11.955 20.663,12.536 20.715,13.135C20.768,13.749 20.686,14.367 20.476,14.946C20.251,15.556 19.898,16.11 19.441,16.572" style="fill:rgb(73,73,73);fill-rule:nonzero;"/>
</svg>
