<?xml version="1.0" encoding="UTF-8" standalone="no"?>
<!DOCTYPE svg PUBLIC "-//W3C//DTD SVG 1.1//EN" "http://www.w3.org/Graphics/SVG/1.1/DTD/svg11.dtd">
<svg width="100%" height="100%" viewBox="0 0 24 24" version="1.1" xmlns="http://www.w3.org/2000/svg" xmlns:xlink="http://www.w3.org/1999/xlink" xml:space="preserve" xmlns:serif="http://www.serif.com/" style="fill-rule:evenodd;clip-rule:evenodd;stroke-linejoin:round;stroke-miterlimit:2;">
    <path d="M17.128,0C16.196,0.007 15.268,0.143 14.373,0.403L14.31,0.423C13.745,0.323 13.173,0.268 12.6,0.258C11.422,0.238 10.41,0.524 9.594,1C8.79,0.721 7.122,0.24 5.364,0.336C4.14,0.403 2.804,0.775 1.814,1.82C0.827,2.865 0.305,4.482 0.415,6.682C0.445,7.289 0.618,8.279 0.905,9.561C1.192,10.843 1.595,12.344 2.098,13.713C2.601,15.083 3.152,16.313 4.013,17.149C4.443,17.568 5.035,17.92 5.733,17.891C6.223,17.871 6.666,17.656 7.048,17.339C7.234,17.584 7.433,17.691 7.614,17.79C7.842,17.915 8.064,18 8.294,18.056C8.707,18.159 9.414,18.297 10.242,18.156C10.524,18.109 10.821,18.017 11.117,17.886C11.128,18.216 11.141,18.539 11.154,18.866C11.195,19.902 11.221,20.859 11.532,21.698C11.582,21.835 11.719,22.541 12.259,23.164C12.799,23.788 13.857,24.177 15.062,23.919C15.912,23.737 16.993,23.409 17.711,22.387C18.421,21.377 18.741,19.928 18.804,17.578C18.818,17.465 18.837,17.353 18.859,17.242L19.028,17.257L19.048,17.257C19.955,17.298 20.939,17.169 21.761,16.787C22.489,16.45 23.04,16.109 23.441,15.504C23.541,15.354 23.651,15.173 23.681,14.861C23.711,14.549 23.532,14.061 23.235,13.836C22.64,13.384 22.266,13.556 21.865,13.639C21.47,13.726 21.067,13.775 20.663,13.785C21.819,11.838 22.648,9.77 23.121,7.94C23.401,6.86 23.558,5.864 23.571,4.993C23.584,4.122 23.513,3.351 22.991,2.684C21.36,0.6 19.067,0.024 17.293,0.004C17.238,0.003 17.183,0.002 17.128,0.003L17.128,0ZM17.081,0.64C18.759,0.624 20.903,1.095 22.442,3.062C22.788,3.504 22.891,4.15 22.879,4.946C22.866,5.741 22.719,6.693 22.45,7.736C21.928,9.756 20.942,12.111 19.553,14.224C19.602,14.259 19.655,14.288 19.711,14.31C20.001,14.43 20.662,14.533 21.981,14.262C22.313,14.192 22.556,14.145 22.808,14.337C22.932,14.442 23,14.6 22.991,14.762C22.978,14.883 22.933,14.999 22.861,15.098C22.606,15.481 22.103,15.844 21.458,16.143C20.887,16.409 20.068,16.548 19.342,16.556C18.978,16.56 18.642,16.532 18.357,16.443L18.339,16.436C18.229,17.496 17.976,19.589 17.811,20.544C17.679,21.314 17.448,21.926 17.007,22.384C16.567,22.842 15.944,23.118 15.106,23.298C14.068,23.521 13.311,23.281 12.823,22.87C12.336,22.46 12.113,21.916 11.979,21.583C11.887,21.353 11.839,21.055 11.793,20.657C11.747,20.259 11.713,19.772 11.69,19.223C11.659,18.382 11.649,17.541 11.66,16.7C11.226,17.097 10.688,17.361 10.108,17.46C9.419,17.577 8.804,17.462 8.437,17.37C8.256,17.325 8.081,17.257 7.917,17.169C7.747,17.078 7.585,16.975 7.477,16.772C7.414,16.656 7.393,16.521 7.42,16.391C7.454,16.26 7.531,16.143 7.638,16.06C7.836,15.899 8.098,15.809 8.493,15.727C9.212,15.579 9.463,15.478 9.616,15.357C9.746,15.253 9.893,15.043 10.153,14.735C10.152,14.721 10.151,14.708 10.15,14.694C9.685,14.681 9.229,14.558 8.82,14.336C8.67,14.494 7.904,15.304 6.97,16.428C6.577,16.898 6.143,17.168 5.685,17.187C5.227,17.207 4.813,16.976 4.461,16.635C3.758,15.952 3.197,14.777 2.708,13.449C2.22,12.121 1.823,10.642 1.541,9.382C1.258,8.122 1.091,7.106 1.067,6.616C0.962,4.534 1.449,3.131 2.284,2.246C3.12,1.361 4.266,1.026 5.383,0.962C7.388,0.847 9.292,1.546 9.677,1.696C10.419,1.192 11.375,0.878 12.569,0.898C13.136,0.906 13.7,0.979 14.25,1.116L14.27,1.107C14.512,1.022 14.759,0.95 15.009,0.893C15.688,0.735 16.383,0.65 17.08,0.642L17.081,0.64ZM17.233,1.31L17.087,1.31C16.514,1.318 15.943,1.382 15.383,1.502C16.629,2.054 17.57,2.904 18.233,3.752C18.694,4.339 19.074,4.985 19.365,5.672C19.475,5.936 19.549,6.159 19.591,6.332C19.612,6.419 19.626,6.492 19.631,6.568C19.635,6.616 19.631,6.665 19.619,6.712C19.619,6.715 19.614,6.722 19.613,6.725C19.643,7.601 19.426,8.195 19.4,9.031C19.38,9.637 19.535,10.349 19.573,11.126C19.609,11.856 19.521,12.658 19.047,13.445C19.087,13.493 19.123,13.541 19.161,13.589C20.415,11.614 21.319,9.429 21.801,7.566C22.059,6.563 22.196,5.654 22.208,4.934C22.218,4.214 22.084,3.692 21.913,3.474C20.571,1.758 18.755,1.321 17.233,1.309L17.233,1.31ZM12.443,1.566C11.261,1.569 10.413,1.926 9.77,2.461C9.107,3.014 8.662,3.771 8.37,4.546C8.023,5.466 7.904,6.356 7.857,6.96L7.87,6.952C8.227,6.752 8.696,6.552 9.198,6.436C9.7,6.321 10.241,6.285 10.731,6.475C11.221,6.665 11.626,7.112 11.773,7.79C12.477,11.047 11.554,12.258 11.214,13.172C11.085,13.503 10.975,13.841 10.883,14.185C10.926,14.175 10.969,14.163 11.012,14.159C11.252,14.139 11.44,14.219 11.552,14.267C11.894,14.409 12.129,14.707 12.256,15.047C12.289,15.136 12.313,15.232 12.327,15.331C12.342,15.372 12.349,15.415 12.347,15.458C12.309,16.704 12.313,17.951 12.36,19.196C12.383,19.734 12.417,20.208 12.46,20.582C12.503,20.955 12.564,21.239 12.603,21.335C12.731,21.655 12.918,22.074 13.256,22.359C13.594,22.643 14.079,22.833 14.965,22.643C15.733,22.478 16.207,22.249 16.524,21.92C16.84,21.591 17.029,21.133 17.15,20.432C17.331,19.382 17.695,16.337 17.739,15.764C17.719,15.332 17.783,15 17.921,14.747C18.063,14.487 18.283,14.328 18.473,14.242C18.568,14.199 18.657,14.17 18.73,14.149C18.653,14.038 18.572,13.93 18.487,13.824C18.213,13.492 17.989,13.122 17.821,12.725C17.741,12.561 17.655,12.4 17.564,12.242C17.431,12.002 17.263,11.702 17.087,11.365C16.735,10.69 16.352,9.872 16.153,9.075C15.955,8.279 15.926,7.455 16.434,6.874C16.884,6.358 17.674,6.144 18.86,6.264C18.825,6.159 18.804,6.072 18.745,5.932C18.477,5.301 18.127,4.708 17.704,4.168C16.699,2.883 15.072,1.609 12.558,1.568L12.443,1.568L12.443,1.566ZM5.801,1.618C5.674,1.618 5.547,1.622 5.421,1.629C4.411,1.687 3.456,1.98 2.773,2.704C2.089,3.428 1.639,4.615 1.737,6.58C1.756,6.952 1.918,7.994 2.196,9.232C2.473,10.47 2.866,11.927 3.338,13.214C3.811,14.501 4.384,15.621 4.928,16.151C5.202,16.416 5.44,16.523 5.656,16.514C5.873,16.504 6.134,16.379 6.453,15.996C7.035,15.294 7.638,14.611 8.263,13.948C7.363,13.167 6.922,11.977 7.096,10.798C7.199,10.059 7.213,9.368 7.201,8.822C7.189,8.29 7.151,7.936 7.151,7.715C7.151,7.709 7.151,7.691 7.151,7.691L7.15,7.685L7.15,7.684C7.149,6.533 7.35,5.39 7.742,4.308C8.022,3.564 8.439,2.808 9.064,2.196C8.45,1.994 7.36,1.686 6.18,1.628C6.053,1.622 5.927,1.618 5.8,1.618L5.801,1.618ZM18.199,6.9C17.52,6.909 17.139,7.084 16.939,7.313C16.656,7.638 16.629,8.208 16.805,8.91C16.98,9.613 17.342,10.399 17.682,11.052C17.852,11.379 18.017,11.673 18.15,11.912C18.284,12.152 18.382,12.322 18.442,12.467C18.497,12.601 18.558,12.719 18.62,12.829C18.883,12.274 18.93,11.729 18.903,11.161C18.868,10.458 18.705,9.739 18.729,9.011C18.756,8.16 18.924,7.606 18.939,6.948C18.694,6.916 18.446,6.9 18.199,6.9ZM9.965,7.015C9.758,7.017 9.551,7.042 9.349,7.089C8.946,7.187 8.559,7.338 8.196,7.538C8.073,7.604 7.957,7.68 7.847,7.766L7.825,7.786C7.831,7.932 7.86,8.286 7.872,8.807C7.884,9.377 7.87,10.104 7.76,10.891C7.521,12.601 8.762,14.017 10.22,14.019C10.305,13.668 10.445,13.312 10.585,12.937C10.991,11.843 11.79,11.045 11.117,7.931C11.007,7.421 10.789,7.215 10.489,7.099C10.321,7.04 10.143,7.011 9.965,7.015ZM17.882,7.219L17.932,7.219C17.993,7.22 18.053,7.227 18.112,7.241C18.166,7.253 18.212,7.271 18.25,7.296C18.289,7.32 18.317,7.36 18.325,7.406L18.324,7.414L18.325,7.414L18.324,7.414C18.326,7.461 18.314,7.508 18.289,7.549C18.26,7.604 18.222,7.654 18.179,7.699C18.078,7.811 17.942,7.885 17.793,7.911C17.648,7.928 17.502,7.892 17.383,7.808C17.334,7.775 17.29,7.735 17.253,7.69C17.221,7.654 17.199,7.61 17.19,7.563C17.186,7.516 17.201,7.47 17.232,7.435C17.265,7.398 17.305,7.367 17.349,7.345C17.445,7.291 17.575,7.251 17.722,7.229C17.777,7.221 17.831,7.217 17.882,7.216L17.882,7.219ZM10.062,7.387C10.115,7.387 10.171,7.392 10.228,7.4C10.381,7.421 10.517,7.462 10.621,7.522C10.672,7.548 10.717,7.584 10.754,7.628C10.795,7.675 10.814,7.736 10.808,7.798C10.798,7.855 10.772,7.909 10.733,7.952C10.692,8.002 10.644,8.046 10.59,8.082C10.46,8.174 10.3,8.214 10.142,8.195C9.98,8.168 9.832,8.088 9.722,7.967C9.675,7.918 9.635,7.863 9.604,7.803C9.571,7.75 9.557,7.688 9.563,7.626C9.578,7.518 9.667,7.462 9.754,7.431C9.853,7.399 9.957,7.386 10.061,7.391L10.062,7.387ZM19.122,14.73L19.119,14.731C18.972,14.784 18.851,14.806 18.749,14.851C18.646,14.891 18.561,14.967 18.51,15.065C18.447,15.18 18.393,15.384 18.409,15.731C18.454,15.762 18.504,15.786 18.557,15.801C18.728,15.853 19.015,15.887 19.335,15.882C19.973,15.875 20.758,15.726 21.175,15.532C21.517,15.373 21.835,15.166 22.118,14.917L22.117,14.917C20.724,15.205 19.937,15.128 19.454,14.929C19.334,14.879 19.222,14.812 19.122,14.729L19.122,14.73ZM11.091,14.824L11.07,14.824C11.017,14.829 10.94,14.847 10.791,15.012C10.443,15.402 10.321,15.647 10.034,15.876C9.747,16.104 9.374,16.226 8.629,16.379C8.47,16.407 8.315,16.456 8.168,16.523C8.197,16.547 8.194,16.553 8.238,16.576C8.347,16.636 8.487,16.689 8.6,16.718C8.92,16.798 9.446,16.891 9.995,16.798C10.544,16.704 11.115,16.441 11.602,15.758C11.686,15.64 11.695,15.466 11.626,15.279C11.556,15.092 11.403,14.931 11.295,14.886C11.231,14.855 11.162,14.835 11.091,14.826L11.091,14.824Z" style="fill:rgb(73,73,73);fill-rule:nonzero;"/>
</svg>
