<?xml version="1.0" encoding="UTF-8" standalone="no"?>
<!DOCTYPE svg PUBLIC "-//W3C//DTD SVG 1.1//EN" "http://www.w3.org/Graphics/SVG/1.1/DTD/svg11.dtd">
<svg width="100%" height="100%" viewBox="0 0 4267 4267" version="1.1" xmlns="http://www.w3.org/2000/svg" xmlns:xlink="http://www.w3.org/1999/xlink" xml:space="preserve" xmlns:serif="http://www.serif.com/" style="fill-rule:evenodd;clip-rule:evenodd;stroke-linejoin:round;stroke-miterlimit:2;">
    <g id="sw">
        <path d="M4266.67,416.667L4266.67,3850C4266.67,4079.96 4079.97,4266.66 3850,4266.66L416.664,4266.66C186.697,4266.66 -0.003,4079.96 -0.003,3850L-0.003,416.667C-0.003,186.7 186.697,0.001 416.664,0.001L3850,0.001C4079.97,0.001 4266.67,186.7 4266.67,416.667ZM2725.57,3954.16L1259.78,1416.28C1259.78,1416.28 1132.32,1636.87 1035.11,1805.07C982.446,1896.24 982.446,2008.59 1035.15,2099.75C1303.95,2564.62 2106.24,3954.15 2106.24,3954.15L2725.58,3954.15L2725.57,3954.16ZM1942.28,3954.16L868.108,2094.38L312.524,3056.28L312.524,3787.49C312.524,3879.48 387.191,3954.16 479.191,3954.16L1942.28,3954.16ZM3508.87,3954.16L1651.41,738.257L1350.82,1258.63L2889.53,3954.16L3508.87,3954.16L3508.87,3954.16ZM3954.2,3369.07L2188.78,312.496L1897.32,312.496L1733.36,596.333L3672.82,3954.15L3787.53,3954.15C3879.53,3954.15 3954.2,3879.47 3954.2,3787.49L3954.2,3369.06L3954.2,3369.07ZM3787.53,312.496L2352.7,312.496L3954.2,3085.23L3954.2,479.166C3954.2,387.178 3879.54,312.499 3787.54,312.499L3787.53,312.496Z" style="fill:rgb(73,73,73);"/>
    </g>
</svg>
