<?xml version="1.0" encoding="UTF-8" standalone="no"?>
<!DOCTYPE svg PUBLIC "-//W3C//DTD SVG 1.1//EN" "http://www.w3.org/Graphics/SVG/1.1/DTD/svg11.dtd">
<svg width="100%" height="100%" viewBox="0 0 4267 4267" version="1.1" xmlns="http://www.w3.org/2000/svg" xmlns:xlink="http://www.w3.org/1999/xlink" xml:space="preserve" xmlns:serif="http://www.serif.com/" style="fill-rule:evenodd;clip-rule:evenodd;stroke-linejoin:round;stroke-miterlimit:2;">
    <g id="sw">
        <path d="M4266.67,416.667L4266.67,3850C4266.67,4079.96 4079.97,4266.66 3850,4266.66L416.664,4266.66C186.697,4266.66 -0.003,4079.96 -0.003,3850L-0.003,416.667C-0.003,186.7 186.697,0.001 416.664,0.001L3850,0.001C4079.97,0.001 4266.67,186.7 4266.67,416.667ZM3841.21,321.359L2544.33,2566.67L3954.17,2566.67L3954.17,479.169C3954.17,405.977 3906.88,343.74 3841.21,321.361L3841.21,321.359ZM2290.63,1681.82L2288.75,1681.82L1979.71,1681.74C1979.71,1681.74 1977.88,1681.78 1976.96,1681.79C1922.34,1682.47 1870.79,1714.51 1843.63,1761.09C1788.75,1856.17 1679.13,2046.33 1679.13,2046.33C1679.13,2046.33 1678.29,2047.73 1677.92,2048.43C1651.17,2096.09 1651.13,2156.56 1677.92,2203.37C1678.25,2204.03 1842.09,2487.61 1842.09,2487.61C1842.09,2487.61 1843.25,2489.68 1843.88,2490.7C1871.79,2537.68 1924.25,2566.45 1978.21,2566.67C1978.5,2566.67 2187.63,2566.91 2291.92,2566.48C2346.59,2565.8 2398,2535.41 2425.17,2488.83C2480.5,2393.05 2536.25,2297.5 2591.13,2201.49C2617.88,2153.84 2616.84,2094.86 2590.09,2048.05C2589.63,2047.29 2588.67,2045.7 2588.67,2045.7L2424.92,1762.15C2424.92,1762.15 2424.38,1761.19 2424.09,1760.71C2396.21,1713.74 2344.59,1682.04 2290.63,1681.82ZM2298,1542.47L1742.42,580.57L1186.83,1542.47L2298,1542.47L2298,1542.47ZM3954.17,2708.7L1969.75,2708.7L2689.09,3954.12L3790.84,3954.13C3881.3,3952.36 3954.17,3878.37 3954.17,3787.5L3954.17,2708.7L3954.17,2708.7ZM2525.17,3954.12L1551.17,2267.82L576.087,3954.12L2525.18,3954.12L2525.17,3954.12ZM419.582,3943.17L1724.21,1684.38L1104.88,1684.38L312.502,3056.26L312.961,3799.86C317.752,3865.46 360.627,3920.57 419.586,3943.18L419.582,3943.17ZM1897.25,312.501L1824.42,438.651L2716.96,1983.99L3682.38,312.501L1897.25,312.501L1897.25,312.501Z" style="fill:rgb(73,73,73);"/>
    </g>
</svg>
