<?xml version="1.0" encoding="UTF-8" standalone="no"?>
<!DOCTYPE svg PUBLIC "-//W3C//DTD SVG 1.1//EN" "http://www.w3.org/Graphics/SVG/1.1/DTD/svg11.dtd">
<svg width="100%" height="100%" viewBox="0 0 100 100" version="1.1" xmlns="http://www.w3.org/2000/svg" xmlns:xlink="http://www.w3.org/1999/xlink" xml:space="preserve" xmlns:serif="http://www.serif.com/" style="fill-rule:evenodd;clip-rule:evenodd;stroke-linejoin:round;stroke-miterlimit:2;">
    <path d="M50,0C49.516,0 49.037,0.1 48.593,0.293L13.1,15.686C8.941,17.491 6.249,21.59 6.249,26.124L6.249,81.341L48.593,99.707C49.49,100.096 50.51,100.099 51.407,99.71L86.9,84.31C91.059,82.506 93.751,78.407 93.751,73.873L93.751,18.659L51.407,0.29C50.959,0.095 50.48,0 50,0ZM50,20.154C67.346,20.154 81.407,34.215 81.407,51.561C81.407,68.907 67.346,82.967 50,82.967C32.654,82.967 18.593,68.906 18.593,51.561C18.593,34.215 32.654,20.154 50,20.154ZM48.541,25.941C44.804,25.846 38.844,26.944 32.931,32.667C34.388,34.977 35.62,36.741 34.973,38.575C34.009,41.305 32.831,40.716 30.511,42.72C28.862,44.143 31.372,46.94 29.208,48.161C27.043,49.382 24.153,50.926 25.253,53.059C26.352,55.193 31.374,56.518 33.416,57.539C35.459,58.561 37.283,60.481 35.946,62.694C34.638,64.859 33.708,67.406 33.441,69.399C37.836,73.333 43.637,75.728 50,75.728C63.72,75.728 74.241,64.435 74.842,50.728C75.011,46.872 70.929,46.812 68.448,46.812C68.448,46.812 69.868,50.66 68.525,52.797C67.182,54.933 64.984,55.97 65.046,58.534C65.107,61.098 61.14,65.187 59.796,66.652C58.454,68.117 55.951,69.766 55.097,66.408C54.242,63.051 54.572,60.25 55.548,57.869C56.525,55.488 54.642,54.756 51.712,54.695C48.782,54.634 47.213,54.245 46.768,49.724C46.402,46 51.947,42.042 54.328,42.042C55.719,42.042 60.389,42.957 60.608,40.623C60.944,37.043 57.19,36.283 56.278,33.949C55.365,31.614 62.442,27.529 50,26.041C49.564,25.989 49.075,25.954 48.541,25.941Z" style="fill:rgb(73,73,73);fill-rule:nonzero;"/>
</svg>
