<?xml version="1.0" encoding="UTF-8" standalone="no"?>
<!DOCTYPE svg PUBLIC "-//W3C//DTD SVG 1.1//EN" "http://www.w3.org/Graphics/SVG/1.1/DTD/svg11.dtd">
<svg width="100%" height="100%" viewBox="0 0 250 250" version="1.1" xmlns="http://www.w3.org/2000/svg" xmlns:xlink="http://www.w3.org/1999/xlink" xml:space="preserve" xmlns:serif="http://www.serif.com/" style="fill-rule:evenodd;clip-rule:evenodd;stroke-linejoin:round;stroke-miterlimit:2;">
    <path d="M125,10C188.47,10 240,61.53 240,125C240,188.47 188.47,240 125,240C61.53,240 10,188.47 10,125C10,61.53 61.53,10 125,10ZM118.105,52.5C78.867,61.836 33.281,109.531 37.715,145.625C59.063,107.969 73.516,102.852 77.441,102.852C81.387,102.852 83.516,104.98 83.516,109.531L83.516,165.645C83.516,172.617 76.777,171.777 72.305,171.094C88.867,195.801 127.5,197.5 127.5,197.5L144.805,178.691L161.484,192.949C186.895,176.504 203.672,148.633 203.672,144.414C191.094,158.281 180.293,160.801 177.871,160.801C175.449,160.801 171.504,160.508 171.504,157.168L171.504,90.605C171.504,84.824 187.402,65.859 192.422,59.473C159.355,68.145 146.621,84.668 146.621,84.668C146.621,84.668 142.168,81.328 132.363,81.328C136.035,84.453 141.172,90.117 141.172,96.797L141.172,157.754C141.172,157.754 130.234,165.645 123.867,165.645C117.5,165.645 112.949,162.93 112.949,158.066L112.949,85.254C112.949,85.254 103.848,91.641 103.848,72.813C103.848,63.418 118.105,52.5 118.105,52.5Z" style="fill:rgb(73,73,73);"/>
</svg>
