<?xml version="1.0" encoding="UTF-8" standalone="no"?>
<!DOCTYPE svg PUBLIC "-//W3C//DTD SVG 1.1//EN" "http://www.w3.org/Graphics/SVG/1.1/DTD/svg11.dtd">
<svg width="100%" height="100%" viewBox="0 0 64 64" version="1.1" xmlns="http://www.w3.org/2000/svg" xmlns:xlink="http://www.w3.org/1999/xlink" xml:space="preserve" xmlns:serif="http://www.serif.com/" style="fill-rule:evenodd;clip-rule:evenodd;stroke-linejoin:round;stroke-miterlimit:2;">
    <g id="sw" transform="matrix(1.07832,0,0,1.07832,-2.50634,-2.5455)">
        <path d="M32.856,60L31.196,60C31.119,59.972 31.042,59.965 30.964,59.965C30.078,59.923 29.198,59.852 28.326,59.733C26.694,59.522 25.09,59.163 23.528,58.664C20.848,57.807 18.351,56.576 16.037,54.972C13.891,53.481 11.992,51.723 10.339,49.698C8.39,47.321 6.871,44.697 5.794,41.814C4.83,39.255 4.253,36.604 4.077,33.868C4.077,33.72 4.049,33.572 4,33.425L4,30.534C4.049,30.407 4.07,30.274 4.077,30.14C4.112,29.486 4.182,28.832 4.267,28.185C4.69,25.063 5.618,22.102 7.046,19.296C8.031,17.361 9.227,15.562 10.633,13.901C12.026,12.256 13.588,10.785 15.318,9.499C18.139,7.403 21.241,5.891 24.631,4.963C26.277,4.514 27.959,4.218 29.661,4.077C29.963,4.049 30.28,4.077 30.582,4L33.424,4C33.642,4.063 33.867,4.028 34.085,4.049C35.211,4.147 36.329,4.289 37.44,4.506C40.937,5.195 44.179,6.504 47.176,8.437C49.505,9.935 51.559,11.742 53.353,13.845C54.795,15.533 56.018,17.368 57.017,19.351C58.199,21.693 59.043,24.147 59.522,26.728C59.775,28.092 59.966,29.47 59.972,30.863C59.972,30.955 59.993,31.053 60,31.144L60,32.804C59.972,32.909 59.972,33.021 59.965,33.134C59.965,33.401 59.965,33.669 59.944,33.936C59.817,35.638 59.55,37.319 59.128,38.978C58.319,42.094 57.017,44.984 55.209,47.649C53.865,49.633 52.297,51.419 50.496,53.001C48.702,54.576 46.739,55.906 44.607,56.981C42.152,58.218 39.57,59.077 36.862,59.548C35.821,59.73 34.773,59.85 33.718,59.913C33.44,59.945 33.145,59.938 32.856,60ZM21.105,45.998C21.54,46.011 22.029,45.957 22.517,45.854C23.963,45.537 25.19,44.88 26.133,43.715C26.707,43.005 27.189,42.235 27.605,41.425C28.094,40.471 28.502,39.477 28.858,38.471C29.293,37.254 29.663,36.01 29.947,34.753C30.105,34.049 29.928,33.608 29.149,33.365C28.159,33.056 27.163,32.78 26.147,32.556C24.464,32.187 22.769,31.95 21.039,32.009C20.551,32.028 20.063,32.081 19.581,32.166C18.182,32.41 16.995,33.055 16.025,34.075C14.368,35.812 13.709,37.884 14.118,40.247C14.705,43.623 17.701,46.025 21.105,45.998ZM42.895,45.998C46.299,46.025 49.295,43.623 49.882,40.247C50.291,37.884 49.632,35.812 47.975,34.075C47.005,33.055 45.818,32.41 44.419,32.166C43.937,32.081 43.449,32.028 42.961,32.009C41.231,31.95 39.536,32.187 37.853,32.556C36.837,32.78 35.841,33.056 34.851,33.365C34.072,33.608 33.895,34.049 34.053,34.753C34.337,36.01 34.707,37.254 35.142,38.471C35.498,39.477 35.906,40.471 36.395,41.425C36.811,42.235 37.293,43.005 37.867,43.715C38.81,44.88 40.037,45.537 41.483,45.854C41.971,45.957 42.46,46.011 42.895,45.998ZM25.003,20.382C24.983,20.896 25.074,21.459 25.226,22.022C25.515,23.092 25.993,24.073 26.558,24.999C27.843,27.106 29.464,28.909 31.222,30.584C31.366,30.722 31.538,30.838 31.721,30.927C31.905,31.022 32.089,31.022 32.279,30.94C32.462,30.858 32.626,30.742 32.764,30.59C33.374,29.959 33.978,29.327 34.555,28.675C35.368,27.749 36.143,26.796 36.845,25.774C37.482,24.847 38.052,23.873 38.472,22.816C38.891,21.766 39.095,20.683 38.957,19.544C38.728,17.665 37.96,16.072 36.589,14.824C34.967,13.35 33.079,12.76 30.953,13.088C27.496,13.624 24.989,16.808 25.003,20.382Z" style="fill:rgb(73,73,73);"/>
    </g>
</svg>
