<?xml version="1.0" encoding="UTF-8" standalone="no"?>
<!DOCTYPE svg PUBLIC "-//W3C//DTD SVG 1.1//EN" "http://www.w3.org/Graphics/SVG/1.1/DTD/svg11.dtd">
<svg width="100%" height="100%" viewBox="0 0 24 24" version="1.1" xmlns="http://www.w3.org/2000/svg" xmlns:xlink="http://www.w3.org/1999/xlink" xml:space="preserve" xmlns:serif="http://www.serif.com/" style="fill-rule:evenodd;clip-rule:evenodd;stroke-linejoin:round;stroke-miterlimit:2;">
    <path d="M12.879,13.006L12.879,16.656L9.875,13.608L9.875,10.113L13.457,10.113L16.309,13.006L12.879,13.006ZM23.765,20.612L23.765,24L20.111,24L14.381,18.1L14.381,14.55L17.735,14.55L23.765,20.612ZM12.937,19.164L16.309,22.535C15,22.977 13.752,23.261 11.984,23.261C5.136,23.26 0,18.243 0,11.565C0,4.92 5.136,0 11.984,0C18.864,0 24,4.952 24,11.565C24,13.685 23.477,15.641 22.543,17.324L18.918,13.599C19.078,12.943 19.159,12.27 19.158,11.594C19.158,7.303 16.01,4.067 12.058,4.067C8.104,4.067 4.81,7.303 4.81,11.594C4.81,15.885 8.14,19.194 12.057,19.194C12.605,19.194 12.718,19.211 12.937,19.164Z" style="fill:rgb(73,73,73);fill-rule:nonzero;"/>
</svg>
