<?xml version="1.0" encoding="UTF-8" standalone="no"?>
<!DOCTYPE svg PUBLIC "-//W3C//DTD SVG 1.1//EN" "http://www.w3.org/Graphics/SVG/1.1/DTD/svg11.dtd">
<svg width="100%" height="100%" viewBox="0 0 800 800" version="1.1" xmlns="http://www.w3.org/2000/svg" xmlns:xlink="http://www.w3.org/1999/xlink" xml:space="preserve" xmlns:serif="http://www.serif.com/" style="fill-rule:evenodd;clip-rule:evenodd;stroke-linejoin:round;stroke-miterlimit:2;">
    <g transform="matrix(1.17967,0,0,1.17967,-61.1561,-87.4487)">
        <path d="M432.5,612.5C315,612.5 240,585 192.5,547.5C202.5,545 212.5,540 222.5,532.5C242.5,512.5 247.5,485 245,460C245,455 242.5,450 242.5,445C247.5,445 252.5,447.5 257.5,447.5C280,447.5 300,437.5 315,422.5C330,450 360,470 395,470C437.5,470 475,440 482.5,397.5C482.5,392.5 485,385 485,380C485,370 482.5,360 480,350C467.5,315 435,290 395,290C372.5,290 350,297.5 335,312.5C330,317.5 325,322.5 320,330C315,325 310,317.5 305,315C292.5,305 275,297.5 257.5,297.5C220,297.5 187.5,325 182.5,362.5C175,357.5 170,352.5 162.5,350C167.5,330 180,310 195,297.5L195,202.5C195,195 202.5,192.5 205,200L205,202.5C215,225 227.5,255 255,277.5C277.5,277.5 300,285 315,300C335,282.5 362.5,270 390,270C420,270 447.5,282.5 467.5,300C562.5,272.5 612.5,210 637.5,160C640,152.5 655,155 655,162.5C670,310 662.5,462.5 592.5,547.5C567.5,530 542.5,517.5 525,507.5C522.5,507.5 522.5,505 520,505L520,500C515,485 502.5,470 485,465C480,462.5 472.5,465 472.5,472.5C470,477.5 472.5,485 480,485L482.5,485C440,512.5 390,525 337.5,522.5L325,522.5C320,522.5 315,527.5 312.5,532.5C312.5,537.5 317.5,542.5 322.5,545L335,545C380,547.5 427.5,540 467.5,520C470,522.5 472.5,527.5 475,530C480,535 487.5,542.5 497.5,550C510,562.5 527.5,575 547.5,590C517.5,602.5 480,612.5 432.5,612.5Z" style="fill:rgb(73,73,73);fill-rule:nonzero;"/>
        <path d="M562.5,575C532.5,552.5 507.5,532.5 492.5,520C490,517.5 490,517.5 487.5,515C485,510 482.5,507.5 480,505L480,502.5C480,502.5 482.5,500 485,502.5C487.5,502.5 490,505 492.5,505C495,505 495,507.5 497.5,507.5C515,515 547.5,532.5 580,555C585,557.5 590,562.5 595,565C622.5,582.5 645,602.5 662.5,615C692.5,582.5 730,670 730,670C730,670 635,680 652.5,635C632.5,625 607.5,607.5 580,590C575,585 567.5,580 562.5,575Z" style="fill:rgb(73,73,73);fill-rule:nonzero;"/>
        <path d="M212.5,510C210,512.5 207.5,515 205,517.5C177.5,542.5 125,530 87.5,487.5C50,445 40,392.5 67.5,367.5C90,350 125,352.5 157.5,372.5C165,377.5 175,385 182.5,392.5C185,395 187.5,397.5 190,400C200,412.5 210,425 215,437.5C222.5,455 225,472.5 225,487.5C222.5,495 220,502.5 212.5,510ZM130,405C130,425 117.5,440 100,440C82.5,440 70,425 70,405C70,385 82.5,370 100,370C117.5,370 130,385 130,405Z" style="fill:rgb(73,73,73);"/>
        <path d="M272.5,420C297.5,420 315,400 315,377.5C315,352.5 295,335 272.5,335L262.5,335C272.5,337.5 280,347.5 280,360C280,375 267.5,385 255,385C245,385 235,377.5 230,367.5L230,377.5C230,400 250,420 272.5,420Z" style="fill:rgb(73,73,73);fill-rule:nonzero;"/>
        <path d="M410,440C437.5,440 460,417.5 460,390C460,362.5 437.5,340 410,340L402.5,340C415,342.5 425,355 425,367.5C425,382.5 412.5,397.5 395,397.5C380,397.5 365,385 365,367.5L365,362.5C360,370 357.5,380 357.5,390C360,417.5 382.5,440 410,440Z" style="fill:rgb(73,73,73);fill-rule:nonzero;"/>
    </g>
</svg>
