<?xml version="1.0" encoding="UTF-8" standalone="no"?>
<!DOCTYPE svg PUBLIC "-//W3C//DTD SVG 1.1//EN" "http://www.w3.org/Graphics/SVG/1.1/DTD/svg11.dtd">
<svg width="100%" height="100%" viewBox="0 0 592 112" version="1.1" xmlns="http://www.w3.org/2000/svg" xmlns:xlink="http://www.w3.org/1999/xlink" xml:space="preserve" xmlns:serif="http://www.serif.com/" style="fill-rule:evenodd;clip-rule:evenodd;stroke-linejoin:round;stroke-miterlimit:2;">
    <g transform="matrix(1,0,0,1,-8,-200)">
        <g>
            <path d="M8,256C8,225.279 33.279,200 64,200C94.721,200 120,225.279 120,256C120,286.721 94.721,312 64,312C33.279,312 8,286.721 8,256ZM168,256C168,225.279 193.279,200 224,200C254.721,200 280,225.279 280,256C280,286.721 254.721,312 224,312C193.279,312 168,286.721 168,256ZM384,200C414.721,200 440,225.279 440,256C440,286.721 414.721,312 384,312C353.279,312 328,286.721 328,256C328,225.279 353.279,200 384,200Z" style="fill:rgb(73,73,73);fill-rule:nonzero;"/>
            <g transform="matrix(1,0,0,1,319.842,0)">
                <path d="M168,256C168,225.279 193.279,200 224,200C254.721,200 280,225.279 280,256C280,286.721 254.721,312 224,312C193.279,312 168,286.721 168,256Z" style="fill:rgb(73,73,73);fill-rule:nonzero;"/>
            </g>
        </g>
    </g>
</svg>
