<?xml version="1.0" encoding="UTF-8" standalone="no"?>
<!DOCTYPE svg PUBLIC "-//W3C//DTD SVG 1.1//EN" "http://www.w3.org/Graphics/SVG/1.1/DTD/svg11.dtd">
<svg width="100%" height="100%" viewBox="0 0 450 450" version="1.1" xmlns="http://www.w3.org/2000/svg" xmlns:xlink="http://www.w3.org/1999/xlink" xml:space="preserve" xmlns:serif="http://www.serif.com/" style="fill-rule:evenodd;clip-rule:evenodd;stroke-linejoin:round;stroke-miterlimit:2;">
    <g transform="matrix(1,0,0,1,-8.87252e-07,4.06409e-05)">
        <g transform="matrix(1,0,0,1,0.75,0.85)">
            <g transform="matrix(1,0,0,1,-0.75,-0.85)">
                <path d="M0,225C0,100.819 100.819,-0 225,-0C345.501,-0 444.004,94.933 449.736,214.024C449.757,221.321 449.757,228.689 449.736,235.985C444.136,352.23 350.148,445.454 233.59,449.839C227.881,449.851 222.136,449.852 216.425,449.839C96.211,445.325 0,346.31 0,225ZM371.816,104.871C371.816,90.015 359.776,77.969 344.927,77.969C330.077,77.969 318.037,90.015 318.037,104.871C318.037,119.727 329.977,131.772 344.927,131.772C359.776,131.772 371.816,119.827 371.816,104.871ZM224.926,109.589C161.113,109.589 109.641,161.083 109.641,224.924C109.641,288.765 161.113,340.26 224.926,340.26C288.739,340.26 340.211,288.765 340.211,224.924C340.211,161.083 288.739,109.589 224.926,109.589Z" style="fill:rgb(73,73,73);"/>
            </g>
            <g transform="matrix(1,0,0,1,-0.75,-0.85)">
                <path d="M224.926,299.907C183.688,299.907 149.976,266.28 149.976,224.924C149.976,183.568 183.588,149.941 224.926,149.941C266.264,149.941 299.876,183.568 299.876,224.924C299.876,266.28 266.164,299.907 224.926,299.907Z" style="fill:rgb(73,73,73);"/>
            </g>
        </g>
    </g>
</svg>
