<?xml version="1.0" encoding="UTF-8" standalone="no"?>
<!DOCTYPE svg PUBLIC "-//W3C//DTD SVG 1.1//EN" "http://www.w3.org/Graphics/SVG/1.1/DTD/svg11.dtd">
<svg width="100%" height="100%" viewBox="0 0 449 449" version="1.1" xmlns="http://www.w3.org/2000/svg" xmlns:xlink="http://www.w3.org/1999/xlink" xml:space="preserve" xmlns:serif="http://www.serif.com/" style="fill-rule:evenodd;clip-rule:evenodd;stroke-linejoin:round;stroke-miterlimit:2;">
    <g transform="matrix(1,0,0,1,0.075,-31.825)">
        <path d="M446.6,163.5C448.7,200.5 448.7,311.3 446.6,348.3C444.8,384.2 436.6,416 410.4,442.2C384.2,468.5 352.4,476.7 316.5,478.4C279.5,480.5 168.6,480.5 131.6,478.4C95.7,476.6 64,468.4 37.7,442.2C11.4,416 3.2,384.2 1.5,348.3C-0.6,311.3 -0.6,200.4 1.5,163.4C3.3,127.5 11.4,95.7 37.7,69.5C64,43.3 95.8,35.1 131.6,33.4C168.6,31.3 279.5,31.3 316.5,33.4C352.4,35.2 384.2,43.4 410.4,69.6C436.7,95.8 444.9,127.6 446.6,163.5ZM224.1,141C160.5,141 109.2,192.3 109.2,255.9C109.2,319.5 160.5,370.8 224.1,370.8C287.7,370.8 339,319.5 339,255.9C339,192.3 287.7,141 224.1,141ZM224.1,330.6C183,330.6 149.4,297.1 149.4,255.9C149.4,214.7 182.9,181.2 224.1,181.2C265.3,181.2 298.8,214.7 298.8,255.9C298.8,297.1 265.2,330.6 224.1,330.6ZM370.5,136.3C370.5,121.5 358.5,109.5 343.7,109.5C328.9,109.5 316.9,121.5 316.9,136.3C316.9,151.1 328.8,163.1 343.7,163.1C358.5,163.1 370.5,151.2 370.5,136.3Z" style="fill:rgb(73,73,73);"/>
    </g>
</svg>
